<?xml version="1.0" encoding="utf-8"?>
<!-- Generator: Adobe Illustrator 23.0.1, SVG Export Plug-In . SVG Version: 6.00 Build 0)  -->
<svg version="1.1" id="Layer_1" xmlns="http://www.w3.org/2000/svg" xmlns:xlink="http://www.w3.org/1999/xlink" x="0px" y="0px"
	 viewBox="0 0 250 250" style="enable-background:new 0 0 250 250;" xml:space="preserve">
<style type="text/css">
	.st0{fill:#666666;}
	.st1{fill:#999999;}
	.st2{fill:#CCCCCC;}
	.st3{fill:#333333;}
	.st4{opacity:0.7;}
	.st5{fill:#4B2C1C;}
</style>
<path d="M83.9,142.6c1,4,1.7,9,0.1,12.5c-4.5,9.7-9.7,19.2-15.6,28.2c-5.6,8.4-6.2,8.1,0.5,16c13.8,16.3,29.2,28.4,49.5,33
	c0.3,0.1,0.5,0.1,0.8,0.2c3.7,1.9,22.7,3,24.8,1.6c2-1.5,1-3.3,0.5-5c-1.1-4.2-3.9-10.6-4.9-14.8c-0.7-2.9-1.1-4.8-1.5-6
	c-0.5-2.3-0.2-2.3-0.5-3.6c-3.2-14.8-1.9-7.7-2.9-14.7c-3.8-12.8,4.6-21.4,17.8-19.6c4.5,0.6,9.1,1.2,13.5,0.9
	c7-0.5,9.5-4.2,8.3-11.1c-0.2-1.2-0.5-2.8,0.1-3.8c3.3-5.6,5.2-11.2,3.3-17.9c-0.4-1.4,2.4-4.3,4.4-5.6c6.3-4.1,6.6-5.6,2.1-11.5
	c-1.8-2.4-3.7-4.8-5.2-7.4c-4.5-7.8-4.2-9.7,1.5-16.6l-4.3-0.6c0.4-7.5,0.9-14.3,1.3-21.3c15.2-6.1,21.1-23.1,11.2-33.1
	c0.4,3.3,0.8,6.6,1.1,9.9l-1.6,0.3c-0.5-2.4-1-4.7-1.8-8.7c-1,3.6-1.6,5.6-2.2,7.7c-0.5-0.1-1-0.1-1.4-0.2c0.3-3.6,0.7-7.1,0.7-10.7
	c0-3.6,0-7.4-4.7-10.2c0.6,4.7,1.1,8.5,1.6,12.2c-0.3,0.1-0.6,0.1-0.8,0.2c-1.6-4.2-3.2-8.5-4.9-12.7c-0.4,0.1-0.8,0.2-1.2,0.3
	c-0.1,1.3-0.2,2.7-0.3,4.1c-3-3.5-5.8-6.7-8.6-9.9c-0.4,0.2-0.7,0.5-1.1,0.7c0.7,1.3,1.5,2.6,2.2,3.9c0.7,0.7,1.4,1.4,2,2.1
	c-0.2,0.2-0.3,0.4-0.5,0.7c-0.5-0.9-1-1.8-1.6-2.7c-2.7-2.8-5.5-5.6-8.2-8.4c-0.6,0.5-1.3,1.1-1.9,1.6c0.7,1.7,1.4,3.4,2.3,5.8
	c-4.6-3.8-8.7-7.1-12.7-10.5c-0.3,0.4-0.6,0.7-1,1.1c1.1,1.4,2.2,2.9,3.9,5c-5.4-2.8-10-5.1-14.6-7.4c-0.1,0.3-0.2,0.6-0.3,0.9
	c2.4,2.1,4.8,4.2,7.8,6.9c-11-3.1-20.5-6.3-30.2-8.5c-10-2.3-17.1,3.7-24.8,10.1c4.5-0.4,8-0.7,11.4-1c0.1,0.4,0.1,0.8,0.2,1.1
	c-2.2,0.4-4.6,0.6-6.6,1.4c-2.7,1.1-5.3,2.6-7.7,4.2c-2,1.3-3.6,3.3-5.5,4.7c-3.9,2.8-7.2,5.5-7.6,11.1c-0.2,3-2.4,5.9-4,8.6
	c-5.3,9.4-6.7,19.7-8.7,30.1c-2.1,11.3,2.4,20.7,6.3,30c2.5,5.9,8.2,10.6,12.4,15.8c0.7,0.9,1.4,1.7,2.1,2.6
	C80.2,137.1,83.1,139.6,83.9,142.6z"/>
</svg>
