<?xml version="1.0" encoding="utf-8"?>
<!-- Generator: Adobe Illustrator 23.0.1, SVG Export Plug-In . SVG Version: 6.00 Build 0)  -->
<svg version="1.1" id="Layer_1" xmlns="http://www.w3.org/2000/svg" xmlns:xlink="http://www.w3.org/1999/xlink" x="0px" y="0px"
	 viewBox="0 0 750 100" style="enable-background:new 0 0 750 100;" xml:space="preserve">
<style type="text/css">
	.st0{fill:#74012A;}
	.st1{fill:#FFFFFF;}
	.st2{fill:#F3DAA1;}
	.st3{fill:none;stroke:#4B2C1C;stroke-width:6;stroke-miterlimit:10;}
</style>
<polyline class="st0" points="-882.3,-504.8 -889.7,-499.4 -897,-494 -904.3,-499.4 -911.7,-504.8 -919,-499.4 -926.4,-494 
	-933.7,-499.4 -941,-504.8 -941,-504.8 -948.4,-499.4 -955.7,-494 -963,-499.4 -970.3,-504.8 -970.4,-504.8 -970.4,-591.3 
	-882.4,-591.3 -882.4,-504.8 "/>
<polygon class="st0" points="-1110,-530.6 -1110,-530.6 -1110,-530.6 "/>
<path class="st1" d="M-905.5-560.7h-41.7c-2.6,0-4.8-2.1-4.8-4.8v0c0-2.6,2.1-4.8,4.8-4.8h41.7c2.6,0,4.8,2.1,4.8,4.8v0
	C-900.7-562.9-902.9-560.7-905.5-560.7z"/>
<path class="st1" d="M-905.5-546h-41.7c-2.6,0-4.8-2.1-4.8-4.8l0,0c0-2.6,2.1-4.8,4.8-4.8h41.7c2.6,0,4.8,2.1,4.8,4.8l0,0
	C-900.7-548.1-902.9-546-905.5-546z"/>
<path class="st1" d="M-905.5-531.2h-41.7c-2.6,0-4.8-2.1-4.8-4.8l0,0c0-2.6,2.1-4.8,4.8-4.8h41.7c2.6,0,4.8,2.1,4.8,4.8l0,0
	C-900.7-533.3-902.9-531.2-905.5-531.2z"/>
<polygon points="-1100.3,627.2 -1160.1,687 -1165,691.9 -1169.9,687 -1229.7,627.2 -1224.8,622.2 -1165,682 -1105.2,622.2 "/>
<g>
	<g>
		<ellipse class="st0" cx="-1420.1" cy="-502.3" rx="61.7" ry="93.5"/>
		<g>
			<path class="st2" d="M-1420.1-593.8c15.6,0,30.5,9.3,41.7,26.2c11.6,17.4,18,40.6,18,65.3s-6.4,47.9-18,65.3
				c-11.3,16.9-26.1,26.2-41.7,26.2s-30.5-9.3-41.7-26.2c-11.6-17.4-18-40.6-18-65.3s6.4-47.9,18-65.3
				C-1450.6-584.5-1435.8-593.8-1420.1-593.8 M-1420.1-597.8c-35.2,0-63.7,42.8-63.7,95.5s28.5,95.5,63.7,95.5s63.7-42.8,63.7-95.5
				S-1384.9-597.8-1420.1-597.8L-1420.1-597.8z"/>
		</g>
	</g>
	<g>
		<g>
			<path class="st2" d="M-1404.8-562.5c2.2,0,4.4,0,6.6,0c0.8,0.5,1.4,1.2,2.3,1.6c3.5,1.4,6.4,3.3,7.3,7.3c0.2,0.8,0.5,1.7,1.1,2.1
				c1.3,0.9,1.3,2,1,3.4c-0.1,0.4,0.1,0.9,0.2,1.4c0.1,0.5,0.1,1,0.1,1.5c0,0.3-0.2,0.6-0.2,0.8c-0.1,0.9-0.5,1.5-1.4,1.7
				c-0.2,0.1-0.5,0.5-0.4,0.7c0.2,0.9,0.5,1.8,0.6,2.7c0.3,2.2,0.9,4.4,0,6.6c-0.1,0.3-0.1,0.7,0,1c0.1,0.5,0.3,0.8,1,0.6
				c0.4-0.1,0.9-0.2,1.3-0.3c0.1,0.1,0.1,0.2,0.2,0.3c-0.3,0.2-0.6,0.5-1,0.6c-1.3,0.3-1.4,0.4-0.5,1.4c1.2,1.4,2.3,2.8,3.6,4.1
				c1.4,1.5,1.3,2.9-0.4,4.1c-0.3,0.2-0.8,0.6-0.8,0.9c-0.2,0.9-0.3,1.8-0.1,2.7c0.1,0.8-0.1,1.4-0.7,1.9c-0.6,0.5-1.2,0.9-1.8,1.3
				c1.2,1.7,1.2,1.7-0.2,3.3c-0.8,0.9-1.1,2-1,3.3c0.4,3.2-0.8,5.4-3.9,6.2c-2.6,0.7-5.4,1-8.1,1.4c-1.4,0.2-2.5,0.7-3,2.1
				c-0.7,2-1.3,4.1-1.8,6.1c-0.4,1.6-0.2,3.1,0.6,4.7c0.9,2,1.8,4,2.5,6c2.1,6,4.1,12,6.2,18c0.2,0.7,0.1,0.9-0.5,1.3
				c-3.9,2-7.9,3.9-11.7,6.1c-5.9,3.4-11.5,7.4-16.7,11.9c-1.5,1.3-1.5,1.3-2.7-0.3c-2-2.5-3.9-5.2-6.2-7.5c-2.9-3-6.1-5.8-9.2-8.7
				c-0.6-0.5-0.7-1-0.4-1.7c3.9-8.6,7.8-17.2,11.6-25.8c0.2-0.4,0.1-1,0.1-1.5c-0.1-0.8-0.4-1.6-0.2-2.3c0.9-2.7,1.4-5.4,1.1-8.3
				c-0.1-0.9,0.3-1.4,1-1.8c0.3-0.1,0.6-0.6,0.6-0.9c0-1.4,0-2.8-0.3-4.1c-0.6-2.6-1.6-5-4-6.5c-2.6-1.6-4.6-3.9-6-6.6
				c-1.2-2.3-2.1-4.6-3.2-7c-0.3-0.5-0.6-1-0.9-1.6c-0.1,0-0.2,0.1-0.3,0.1c0,0.5,0.1,0.9,0.1,1.4c0.1,1.7,0.3,3.4,0.4,5.1
				c0,0.5,0,1,0.2,1.5c0.6,1.2,1.4,2.2,2.1,3.4c0.8,1.5,1.3,3.1,0.7,4.9c-0.3,0.7-0.5,1.6-0.4,2.4c0.2,1.3,0.7,2.5,0.9,3.8
				c0.1,0.7,0.2,1.4,0.1,2.2c-0.1,1.6-0.4,3.2-0.5,4.8c-0.1,0.9-0.1,1.9-0.3,2.8c-0.1,0.3-0.3,0.8-0.6,0.9c-1.1,0.4-2.3,0.8-3.4,1.1
				c-0.3,0.1-0.7-0.1-0.9-0.3c-0.7-1.1-1.5-1.8-2.9-1.7c-1.7,0-3.3,0-4.5-1.5c-1.1-1.4-3-2.4-2.2-4.7c0.3-0.9-0.1-1.3-0.9-1.7
				c-2.1-1-3.8-2.5-5.2-4.4c-1.5-2.1-2.2-4.3-1.3-6.8c0.3-0.9,0.7-1.7,0.9-2.6c0.2-0.9,0.4-1.9,0-2.6c-1.3-3.3-1.9-6.7-1.6-10.2
				c0-0.6-0.1-1.1,0-1.7c0.1-0.8,0.3-1.6,0.6-2.3c0.4-1,1.3-1.9,1.3-2.9c0.1-3.3,1.3-6.2,3.1-8.8c0.9-1.3,2.1-2.6,3.4-3.4
				c1.9-1,3.9-1.9,6.2-1.5c1.2,0.2,2.1,0,2.5-1.4c0.1-0.5,0.5-0.8,1.2-0.4c0.4,0.3,1.1,0.3,1.6,0.5c0.4,0.1,0.9,0.2,1.2,0.4
				c1.4,1,1.3,1,2.6-0.1c4.5-3.6,9.5-6.2,15.3-6.8c3.6-0.4,7.2-0.8,10.7,0.4c1,0.3,1.9,0.8,2.8,1.1c0.6-0.9,1-1.9,1.7-2.6
				C-1407.3-560.7-1406-561.5-1404.8-562.5z M-1403.2-482.6c0.1,0.1-0.1-0.1-0.2-0.2c-2.6-3.1-5.7-5.6-9.2-7.7
				c-4.5-2.7-9-5.4-13.5-8.1c-1.4-0.8-2.3-0.4-2.4,1.1c-0.1,2-0.1,4.1-0.1,6.1c0,0.9,0.5,1.6,1.2,2.2c1.4,1.1,2.7,2.2,4,3.4
				c2.9,2.8,5.6,5.8,8.6,8.6c2.2,2.1,2.9,2.4,5.6,1.1c0.6-0.3,1.1-1,1.7-1.5C-1406.2-479.3-1404.7-480.9-1403.2-482.6z M-1441.2-539
				c0-0.2,0.1-0.3,0.1-0.3c-0.3-2.7-0.5-5.5-0.8-8.2c-0.1-1.5-0.8-2.6-2.1-3.5c-0.6-0.4-0.8-0.4-1,0.4c-0.5,1.8-1,3.7-1.9,5.4
				c-3.2,6.1-6.6,12.1-9.9,18.2c-0.3,0.5-0.5,1-0.7,1.4c0.4,0.1,0.6,0,0.7-0.2c1.8-1.2,3.7-2.4,5.5-3.7c0.3-0.2,0.7-0.6,0.9-0.9
				c1.3-2.8,2.7-5.6,4-8.5c0.2-0.5,0.5-0.7,1.1-0.6C-1444-539.3-1442.6-539.2-1441.2-539z"/>
		</g>
	</g>
	<g>
		<g>
			<path class="st2" d="M-1420.1-589.3c30.6,0,55.4,39,55.4,87s-24.9,87-55.4,87s-55.4-39-55.4-87S-1450.7-589.3-1420.1-589.3
				 M-1420.1-592.3c-32.3,0-58.4,40.3-58.4,90c0,49.7,26.2,90,58.4,90s58.4-40.3,58.4-90C-1361.7-552-1387.9-592.3-1420.1-592.3
				L-1420.1-592.3z"/>
		</g>
	</g>
	<g>
		<circle class="st2" cx="-1420.1" cy="-424" r="4.7"/>
	</g>
</g>
<g>
	<path d="M-812.1,603.2c-1.8,21.1-19.7,37.2-40.5,37.2c-1.1,0-2.1,0-3.2-0.1l-0.3,0l-0.2-0.1c-101.8-30.3-205.4-45.7-308-45.7h-1.3
		c-102.6,0-206.2,15.4-308,45.7l-0.2,0.1l-0.3,0c-1.1,0.1-2.1,0.1-3.2,0.1c-20.9,0-38.7-16.1-40.5-37.2c-0.8-8.8,2-17.4,7.7-24.1
		c5.7-6.8,13.7-10.9,22.5-11.6c7.2-0.6,14.1,1.6,19.6,6.2c5.5,4.6,8.9,11.1,9.5,18.3l-5,0.4c-0.5-5.8-3.2-11.1-7.7-14.9
		s-10.2-5.6-16-5.1c-7.5,0.6-14.2,4.1-19.1,9.9c-4.8,5.7-7.2,13-6.5,20.5c1.7,19.4,18.7,34,38.1,32.6
		c102.2-30.4,206.2-45.8,309.2-45.8h1.3c103,0,207,15.4,309.2,45.8c19.4,1.4,36.5-13.2,38.1-32.6c0.6-7.5-1.7-14.7-6.5-20.5
		c-4.8-5.7-11.6-9.2-19.1-9.9c-5.8-0.5-11.5,1.3-16,5.1s-7.2,9.1-7.7,14.9l-5-0.4c0.6-7.2,4-13.7,9.5-18.3
		c5.5-4.6,12.5-6.9,19.6-6.2c8.8,0.8,16.8,4.9,22.5,11.6C-814.1,585.8-811.4,594.4-812.1,603.2z"/>
</g>
<g>
	<path d="M727.9,49.3c-1.8,21.1-19.7,37.2-40.5,37.2c-1.1,0-2.1,0-3.2-0.1l-0.3,0l-0.2-0.1C581.8,56,478.2,40.6,375.6,40.6h-1.3
		c-102.6,0-206.2,15.4-308,45.7l-0.2,0.1l-0.3,0c-1.1,0.1-2.1,0.1-3.2,0.1c-20.9,0-38.7-16.1-40.5-37.2c-0.8-8.8,2-17.4,7.7-24.1
		c5.7-6.8,13.7-10.9,22.5-11.6c7.2-0.6,14.1,1.6,19.6,6.2c5.5,4.6,8.9,11.1,9.5,18.3l-5,0.4c-0.5-5.8-3.2-11.1-7.7-14.9
		s-10.2-5.6-16-5.1c-7.5,0.6-14.2,4.1-19.1,9.9c-4.8,5.7-7.1,13-6.5,20.5c1.7,19.4,18.7,34,38.1,32.6
		C167.4,51,271.4,35.6,374.4,35.6h1.3c103,0,207,15.4,309.2,45.8c19.4,1.4,36.5-13.2,38.1-32.6c0.6-7.5-1.7-14.7-6.5-20.5
		c-4.8-5.7-11.6-9.2-19.1-9.9c-5.8-0.5-11.5,1.3-16,5.1s-7.2,9.1-7.7,14.9l-5-0.4c0.6-7.2,4-13.7,9.5-18.3
		c5.5-4.6,12.5-6.9,19.6-6.2c8.8,0.8,16.8,4.9,22.5,11.6C725.9,31.9,728.6,40.5,727.9,49.3z"/>
</g>
<path class="st3" d="M-121.3,650.7h-547.4c-29.8,0-53.9-24.2-53.9-53.9V-496.8c0-29.8,24.2-53.9,53.9-53.9h547.4
	c29.8,0,53.9,24.2,53.9,53.9V596.8C-67.4,626.6-91.5,650.7-121.3,650.7z"/>
<path class="st3" d="M-138.1,619.9h-513.7c-29.8,0-53.9-24.2-53.9-53.9V-465.9c0-29.8,24.2-53.9,53.9-53.9h513.7
	c29.8,0,53.9,24.2,53.9,53.9V565.9C-84.2,595.7-108.3,619.9-138.1,619.9z"/>
</svg>
